# xmcd
#
# Track frame offsets:
#	150
#	23675
#	47400
#	70115
#
# Disc length: 1246 seconds
#
# Revision: 1
# Processed by: cddbd v1.5PL3 Copyright (c) Steve Scherf et al.
# Submitted via: CDex 1.50Beta5
#
DISCID=2604dc04
DTITLE=Water Fowl - Forever Love
DYEAR=2002
DGENRE=Blues
TTITLE0=Forever Love
TTITLE1=愛つばさ
TTITLE2=時代
TTITLE3=Forever Love (Instrumental)
EXTD=
EXTT0=
EXTT1=
EXTT2=
EXTT3=
PLAYORDER=
